<svg xmlns="http://www.w3.org/2000/svg" viewBox="0 0 1200 900" role="img" aria-labelledby="title desc">
  <title id="title">Athlete Illustration</title>
  <desc id="desc">Stylized athlete figure in black and red on a light abstract background.</desc>
  <defs>
    <linearGradient id="bg" x1="0" y1="0" x2="1" y2="1">
      <stop offset="0%" stop-color="#f6f6f6"/>
      <stop offset="100%" stop-color="#dedede"/>
    </linearGradient>
  </defs>
  <rect width="1200" height="900" fill="url(#bg)"/>
  <g opacity="0.35" fill="#ffffff">
    <circle cx="180" cy="130" r="72"/>
    <circle cx="1030" cy="190" r="98"/>
    <circle cx="980" cy="760" r="130"/>
    <circle cx="250" cy="730" r="145"/>
  </g>
  <g transform="translate(610,80)">
    <ellipse cx="120" cy="110" rx="62" ry="78" fill="#08090c"/>
    <path d="M145 190c95 8 146 62 132 123-11 49-60 87-124 89-86 3-150-53-145-125 5-64 62-94 137-87z" fill="#ef4444"/>
    <path d="M105 284c132 15 172 116 148 190-26 80-124 136-209 106-79-27-113-110-83-177 28-62 84-127 144-119z" fill="#07080b"/>
    <path d="M230 360c80-27 144 16 163 81 24 84-36 199-125 236-66 27-133 7-165-53-37-69 18-226 127-264z" fill="#07080b"/>
    <path d="M126 558c45 17 61 64 40 110l-24 50h-93l28-69c17-43 33-98 49-91z" fill="#ef4444"/>
    <path d="M307 612c54 15 85 60 76 112l-8 45h-89l3-36c4-54-15-110 18-121z" fill="#ef4444"/>
    <ellipse cx="115" cy="775" rx="155" ry="78" fill="#111318"/>
    <ellipse cx="292" cy="792" rx="162" ry="83" fill="#111318"/>
    <ellipse cx="113" cy="786" rx="152" ry="23" fill="#f0f0f0"/>
    <ellipse cx="293" cy="807" rx="159" ry="25" fill="#f0f0f0"/>
  </g>
</svg>
